<svg xmlns="http://www.w3.org/2000/svg" width="512" height="512" viewBox="0 0 512 512">
  <defs>
  <linearGradient id="tg-gold" x1="0.15" y1="0" x2="0.85" y2="1">
    <stop offset="0" stop-color="#E4C766"/>
    <stop offset="0.5" stop-color="#C9A227"/>
    <stop offset="1" stop-color="#9E7F1C"/>
  </linearGradient>
  <linearGradient id="tg-ink" x1="0" y1="0" x2="1" y2="1">
    <stop offset="0" stop-color="#161618"/>
    <stop offset="1" stop-color="#0F0F10"/>
  </linearGradient></defs>
  <rect x="20" y="20" width="472" height="472" rx="112" fill="url(#tg-ink)" stroke="url(#tg-gold)" stroke-width="16"/>
  
  <g fill="url(#tg-gold)">
    <!-- wings: six sharply-tapered feathers, fanned (right authored, left mirrored) -->
    
    <path d="M262 208 L470 96 L462 124 L272 224 Z"/>
    <path d="M260 222 L452 132 L446 158 L266 240 Z"/>
    <path d="M258 236 L426 166 L422 190 L262 252 Z"/>
    <path d="M256 248 L394 196 L392 218 L258 262 Z"/>
    <path d="M254 258 L356 222 L356 242 L254 272 Z"/>
    <path d="M252 266 L314 244 L316 262 L252 280 Z"/>
    <g transform="translate(512,0) scale(-1,1)">
    <path d="M262 208 L470 96 L462 124 L272 224 Z"/>
    <path d="M260 222 L452 132 L446 158 L266 240 Z"/>
    <path d="M258 236 L426 166 L422 190 L262 252 Z"/>
    <path d="M256 248 L394 196 L392 218 L258 262 Z"/>
    <path d="M254 258 L356 222 L356 242 L254 272 Z"/>
    <path d="M252 266 L314 244 L316 262 L252 280 Z"/></g>
    <!-- angular brow ridge -->
    <path d="M236 130 L276 130 L288 150 L224 150 Z"/>
    <!-- hooked beak, tapering to a sharp point -->
    <path d="M232 150 L280 150 L268 178 L256 206 L244 178 Z"/>
    <!-- chest tapers to a shield point: container plate built into the eagle's own body -->
    <path d="M232 206 L280 206 L292 222 L286 270 L272 320 L256 364 L240 320 L226 270 L220 222 Z"/>
    <!-- integrated container panel lines -->
    <rect x="238" y="238" width="36" height="4" rx="1.5" fill="#0F0F10" opacity="0.45"/>
    <rect x="235" y="256" width="42" height="4" rx="1.5" fill="#0F0F10" opacity="0.45"/>
    <rect x="233" y="274" width="46" height="4" rx="1.5" fill="#0F0F10" opacity="0.4"/>
    <rect x="238" y="292" width="36" height="4" rx="1.5" fill="#0F0F10" opacity="0.35"/>
  </g>
  <!-- brow shadow line -->
  <path fill="#0F0F10" opacity="0.5" d="M234 148 L278 148 L280 150 L232 150 Z"/>
</svg>